<svg width="22" height="22" fill="none" xmlns="http://www.w3.org/2000/svg"><g clip-path="url(#clip0)"><g filter="url(#filter0_d)"><path d="M12.944 9.743a2.75 2.75 0 11-3.889 3.89 2.75 2.75 0 013.89-3.89z" fill="#989898"/></g><g filter="url(#filter1_d)"><path d="M19.25 4.125h-1.9l-1.376-2.75h-9.95L4.65 4.126l-1.897.004A2.755 2.755 0 00.007 6.878L0 17.875a2.753 2.753 0 002.75 2.75h16.5a2.753 2.753 0 002.75-2.75v-11a2.753 2.753 0 00-2.75-2.75zM11 17.188a5.506 5.506 0 01-5.5-5.5c0-3.033 2.467-5.5 5.5-5.5 3.032 0 5.5 2.467 5.5 5.5 0 3.032-2.468 5.5-5.5 5.5z" fill="#989898"/></g></g><defs><filter id="filter0_d" x="4.25" y="8.937" width="13.5" height="13.5" filterUnits="userSpaceOnUse" color-interpolation-filters="sRGB"><feFlood flood-opacity="0" result="BackgroundImageFix"/><feColorMatrix in="SourceAlpha" values="0 0 0 0 0 0 0 0 0 0 0 0 0 0 0 0 0 0 127 0"/><feOffset dy="4"/><feGaussianBlur stdDeviation="2"/><feColorMatrix values="0 0 0 0 0 0 0 0 0 0 0 0 0 0 0 0 0 0 0.25 0"/><feBlend in2="BackgroundImageFix" result="effect1_dropShadow"/><feBlend in="SourceGraphic" in2="effect1_dropShadow" result="shape"/></filter><filter id="filter1_d" x="-4" y="1.375" width="30" height="27.251" filterUnits="userSpaceOnUse" color-interpolation-filters="sRGB"><feFlood flood-opacity="0" result="BackgroundImageFix"/><feColorMatrix in="SourceAlpha" values="0 0 0 0 0 0 0 0 0 0 0 0 0 0 0 0 0 0 127 0"/><feOffset dy="4"/><feGaussianBlur stdDeviation="2"/><feColorMatrix values="0 0 0 0 0 0 0 0 0 0 0 0 0 0 0 0 0 0 0.25 0"/><feBlend in2="BackgroundImageFix" result="effect1_dropShadow"/><feBlend in="SourceGraphic" in2="effect1_dropShadow" result="shape"/></filter><clipPath id="clip0"><path fill="#fff" d="M0 0h22v22H0z"/></clipPath></defs></svg>